# xmcd
#
# Track frame offsets:
#	150
#	12739
#	25005
#	35892
#	47768
#	59201
#	71417
#	83665
#	95932
#	109126
#	120928
#	133067
#	144725
#	157759
#	171023
#	181605
#	193454
#	205836
#	217119
#	230578
#	243488
#
# Disc length: 3408 seconds
#
# Revision: 0
# Processed by: cddbd v1.4PL0 Copyright (c) Steve Scherf et al.
# Submitted via: audiograbber 1.82.02
#
DISCID=390d4e15
DTITLE=Ted Daffan - I got five dollars and its Saturday night
DYEAR=1900
DGENRE=Country
TTITLE0=crying the blues again
TTITLE1=where the deep waters flow
TTITLE2=car hop's blues
TTITLE3=down Hilo way
TTITLE4=breakin' my heart over you
TTITLE5=I'll travel alone
TTITLE6=weary, worried and blue
TTITLE7=too late, little girl, too late
TTITLE8=strip tease swing
TTITLE9=I lost my sunshine
TTITLE10=those blue eyes don't sparkle any more
TTITLE11=got money on my mind
TTITLE12=flame of love
TTITLE13=among you're souvenirs
TTITLE14=I'm that kind of guy
TTITLE15=take that leash off of me
TTITLE16=that's a dad blamed lie
TTITLE17=I'm gonna leave this darned old town
TTITLE18=I've got five dollars and its Saturday night
TTITLE19=kiss me goodnight
TTITLE20=ain't got no name rag
EXTD=
EXTT0=
EXTT1=
EXTT2=
EXTT3=
EXTT4=
EXTT5=
EXTT6=
EXTT7=
EXTT8=
EXTT9=
EXTT10=
EXTT11=
EXTT12=
EXTT13=
EXTT14=
EXTT15=
EXTT16=
EXTT17=
EXTT18=
EXTT19=
EXTT20=
PLAYORDER=
